<svg width="17" height="11" viewBox="0 0 17 11" xmlns="http://www.w3.org/2000/svg">
<path d="M16.8962 5.25697L11.5837 0.100716C11.4454 -0.033572 11.2213 -0.033572 11.0829 0.100716C10.9446 0.235004 10.9446 0.452534 11.0829 0.586789L15.7909 5.15626H0.354177C0.158412 5.15626 0 5.31001 0 5.50002C0 5.69003 0.158412 5.84378 0.354177 5.84378H15.7909L11.0829 10.4132C10.9446 10.5475 10.9446 10.765 11.0829 10.8993C11.1521 10.9664 11.2427 11 11.3333 11C11.424 11 11.5146 10.9664 11.5838 10.8993L16.8963 5.74304C17.0346 5.60879 17.0346 5.39126 16.8962 5.25697Z" fill="inherit"/>
</svg>
