<svg width="94" height="70" viewBox="0 0 94 70" fill="none" xmlns="http://www.w3.org/2000/svg">
<path d="M61.174 45.5154C58.0517 44.0393 55.2767 41.9978 52.9263 39.4474C52.6325 39.1287 52.3473 38.8039 52.0705 38.4735L51.8961 38.6343L43.7625 40.8883C43.7449 35.2924 41.1626 30.0784 36.8105 26.6727C37.7293 24.5101 38.2484 22.1812 38.3285 19.8193C38.5021 14.702 36.6725 9.82338 33.1769 6.08214C29.6813 2.34089 24.9381 0.185062 19.8208 0.0114082C9.26641 -0.350736 0.383701 7.95404 0.0133132 18.5158C-0.234711 25.585 2.99785 35.6005 8.44925 44.6541C13.0776 52.3406 21.3602 62.8994 34.5357 69.5497L35.4278 70L36.4007 69.7719C43.3333 68.1473 56.2466 60.6485 62.9722 54.3421C65.2116 52.2423 67.3315 50.0306 69.2741 47.8621C66.4627 47.5164 63.7463 46.7313 61.174 45.5154Z" fill="#D74850"/>
<path d="M88.1711 6.96826C84.3299 2.79965 79.095 0.376748 73.4313 0.145576C73.1332 0.133303 72.8358 0.127258 72.5394 0.127258C67.2012 0.127258 62.1335 2.10449 58.1844 5.74389C54.016 9.58515 51.5931 14.8198 51.3619 20.4836C50.8845 32.1753 60.0079 42.0756 71.6999 42.5531C71.9964 42.5652 72.2915 42.5713 72.5866 42.5713C77.9265 42.5711 82.9967 40.5951 86.9468 36.9548C91.1152 33.1136 93.5381 27.8789 93.7693 22.2151C94.0006 16.5514 92.0124 11.1365 88.1711 6.96826ZM82.8491 21.7691C82.737 24.5161 81.5619 27.0545 79.5403 28.9177C77.5658 30.7374 75.064 31.6366 72.5696 31.6366C69.7921 31.6366 67.0235 30.5227 64.9972 28.3238C61.1513 24.1504 61.4179 17.6265 65.591 13.7807C69.7644 9.93484 76.2883 10.2015 80.1342 14.3745C81.9971 16.3961 82.9612 19.0222 82.8491 21.7691Z" fill="#D74850"/>
<path d="M76.0931 18.0985C75.2248 17.1564 74.0416 16.6087 72.7614 16.5563C71.4821 16.5057 70.2573 16.9534 69.3151 17.8217C68.3728 18.69 67.8253 19.8731 67.7729 21.1533C67.7207 22.4336 68.17 23.6574 69.0383 24.5997C70.8307 26.5447 73.8713 26.6689 75.8163 24.8765C76.7584 24.0082 77.3061 22.825 77.3583 21.5448C77.4108 20.2646 76.9613 19.0406 76.0931 18.0985Z" fill="#D74850"/>
</svg>
