<svg width="82" height="70" viewBox="0 0 82 70" fill="none" xmlns="http://www.w3.org/2000/svg">
<path d="M69.3159 2.84686C66.0264 1.03997 62.2628 0 58.2444 0C51.1405 0 44.7927 3.23081 40.588 8.29563C36.3744 3.23081 30.0286 0 22.9233 0C18.9137 0 15.1456 1.03997 11.8532 2.84686C4.78239 6.76179 0 14.2875 0 22.9371C0 25.4039 0.402188 27.7796 1.13411 30.0049C1.44808 31.4215 1.98531 32.8754 2.67091 34.3358H17.4774L21.1933 28.1142C21.7349 27.2014 22.7118 26.6405 23.774 26.6179C24.7405 26.5533 25.8347 27.125 26.4094 28.0162L31.7709 36.2827L38.3656 18.4681C38.8112 17.263 39.9576 16.4631 41.2425 16.4601H41.2485C42.5329 16.4601 43.6823 17.2601 44.1298 18.4622L50.0389 34.3358H60.2011C61.9089 34.3358 63.2742 35.712 63.2742 37.4075C63.2742 39.1059 61.9084 40.4806 60.2011 40.4806H47.9082C46.6243 40.4806 45.4774 39.6796 45.0239 38.4819L41.2618 28.3691L35.4217 44.1658C35.0195 45.2521 34.0396 46.0205 32.8809 46.1526C32.767 46.1644 32.6532 46.1703 32.5447 46.1703C31.5121 46.1703 30.5382 45.6484 29.9635 44.772L23.9494 35.503L21.8665 38.9857C21.3037 39.9192 20.3016 40.4865 19.2257 40.4865H6.41086C17.3833 55.4143 40.5944 70 40.5944 70C40.5944 70 76.1048 47.6894 80.0389 30.0049C80.7654 27.7796 81.1676 25.4039 81.1676 22.9371C81.1676 14.2875 76.3808 6.76179 69.3159 2.84686Z" fill="#D74850"/>
</svg>
