<svg width="20" height="20" viewBox="0 0 20 20" fill="none" xmlns="http://www.w3.org/2000/svg">
<path d="M17.0744 2.92581C13.1733 -0.975271 6.82689 -0.975271 2.92581 2.92581C-0.975271 6.82603 -0.975271 13.1741 2.92581 17.0744C4.87594 19.0253 7.43801 20 10.0001 20C12.5622 20 15.1234 19.0253 17.0744 17.0744C20.9754 13.1741 20.9754 6.82603 17.0744 2.92581ZM15.592 7.25456L9.75582 13.0908C9.59324 13.2534 9.37982 13.3351 9.16636 13.3351C8.95293 13.3351 8.73947 13.2534 8.57689 13.0908L5.24194 9.75582C4.91596 9.42984 4.91596 8.90291 5.24194 8.57693C5.56792 8.25095 6.09486 8.25095 6.42084 8.57693L9.16636 11.3224L14.4131 6.07571C14.7391 5.74973 15.266 5.74973 15.592 6.07571C15.918 6.40165 15.918 6.92858 15.592 7.25456Z" fill="#D74850"/>
</svg>
