<svg width="18" height="19" viewBox="0 0 18 19" fill="none" xmlns="http://www.w3.org/2000/svg">
<g clip-path="url(#clip0)">
<path d="M9 0.5C4.0372 0.5 0 4.5372 0 9.5C0 14.4628 4.0372 18.5 9 18.5C13.9628 18.5 18 14.4628 18 9.5C18 4.5372 13.9628 0.5 9 0.5ZM13.2803 14.1552C13.134 14.3014 12.942 14.375 12.75 14.375C12.5581 14.375 12.3659 14.3014 12.2198 14.1552L8.46977 10.4053C8.32874 10.2651 8.25005 10.0744 8.25005 9.87505V5C8.25005 4.58527 8.58595 4.25005 9 4.25005C9.41405 4.25005 9.74995 4.58527 9.74995 5V9.56454L13.2803 13.0947C13.5735 13.3881 13.5735 13.862 13.2803 14.1552Z" fill="#D74850"/>
</g>
<defs>
<clipPath id="clip0">
<rect width="18" height="18" fill="white" transform="translate(0 0.5)"/>
</clipPath>
</defs>
</svg>
