<svg width="57" height="70" viewBox="0 0 57 70" fill="none" xmlns="http://www.w3.org/2000/svg">
<path d="M16.8164 15.4199V9.86301C16.8164 8.9552 17.551 8.21924 18.457 8.21924H38.6913C39.5974 8.21924 40.332 8.9552 40.332 9.86301V15.5266C43.265 16.679 46.0253 18.2623 48.5351 20.2449V8.21911C48.5351 3.67978 44.8624 0 40.332 0H16.8164C12.2859 0 8.61328 3.67978 8.61328 8.21911V20.0316C11.1281 18.088 13.8879 16.5398 16.8164 15.4199Z" fill="#D74850"/>
<path d="M28.4374 17.3973C12.7191 17.3973 0 30.1396 0 45.8904C0 55.476 4.76642 64.3612 12.7501 69.6584C13.0859 69.8812 13.4796 70.0001 13.8824 70.0001H42.9925C43.3951 70.0001 43.789 69.8812 44.1248 69.6584C52.1085 64.3612 56.8749 55.476 56.8749 45.8904C56.8749 30.1413 44.1575 17.3973 28.4374 17.3973ZM26.3355 50.3279C27.1364 51.1303 27.1364 52.4313 26.3355 53.2337C25.5348 54.0361 24.2362 54.0363 23.4353 53.2337L19.414 49.2045V51.7808C19.414 52.9156 18.4958 53.8356 17.3632 53.8356C16.2307 53.8356 15.3125 52.9156 15.3125 51.7808V36.9862C15.3125 35.8515 16.2307 34.9315 17.3632 34.9315C18.4958 34.9315 19.414 35.8515 19.414 36.9862V39.5626L23.4355 35.5333C24.2362 34.7308 25.5348 34.7308 26.3357 35.5333C27.1366 36.3357 27.1366 37.6367 26.3357 38.4391L20.403 44.3834L26.3355 50.3279ZM41.5624 51.7808C41.5624 52.9156 40.6442 53.8356 39.5116 53.8356C38.8574 53.8356 38.2761 53.5275 37.9007 53.0496C33.3604 55.4454 27.8906 52.1201 27.8906 46.9862V41.7808C27.8906 38.0041 30.9572 34.9315 34.7265 34.9315C37.298 34.9315 39.6276 36.3551 40.806 38.6468C41.3247 39.6557 40.929 40.8947 39.9222 41.4145C38.9153 41.9339 37.6787 41.5377 37.1598 40.529C35.8525 37.9863 31.9921 38.9153 31.9921 41.7808V46.9862C31.9921 48.4968 33.2188 49.7259 34.7265 49.7259C36.1419 49.7259 37.3094 48.6427 37.4471 47.2602H36.5038C35.3713 47.2602 34.4531 46.3402 34.4531 45.2055C34.4531 44.0707 35.3713 43.1507 36.5038 43.1507H39.5116C40.6442 43.1507 41.5624 44.0707 41.5624 45.2055V51.7808Z" fill="#D74850"/>
</svg>
