<svg width="12" height="7" viewBox="0 0 12 7" fill="none" xmlns="http://www.w3.org/2000/svg">
<path d="M11.6618 0.585052L11.2736 0.19415C11.1514 0.0720717 10.9889 0.00481773 10.8152 0.00481773C10.6415 0.00481773 10.4788 0.0720717 10.3566 0.19415L5.92827 4.6227L1.49481 0.189236C1.37283 0.0671577 1.21009 0 1.03646 0C0.862836 0 0.7 0.0671577 0.577922 0.189236L0.189621 0.577729C-0.0632072 0.830365 -0.0632072 1.24189 0.189621 1.49452L5.46819 6.79207C5.59017 6.91405 5.75272 7 5.92789 7H5.92991C6.10363 7 6.26618 6.91396 6.38816 6.79207L11.6618 1.50888C11.784 1.3869 11.8511 1.21944 11.8512 1.04581C11.8512 0.872085 11.784 0.706937 11.6618 0.585052Z" fill="#D74850"/>
</svg>
