<svg width="49" height="70" viewBox="0 0 49 70" fill="none" xmlns="http://www.w3.org/2000/svg">
<path d="M39.5882 21.8919V18.2671H42.6279C44.3119 18.2671 45.6677 16.897 45.6677 15.2273V3.03976C45.6677 1.35576 44.2977 0 42.6279 0H6.09378C4.40979 0 3.05403 1.35576 3.05403 3.03976V15.213C3.05403 16.897 4.42406 18.2528 6.09378 18.2528H9.13354V21.8777C3.86748 23.4475 0 28.2712 0 34.0367V57.2559C0 64.2773 5.72273 70 12.7441 70H35.9633C42.999 70 48.7074 64.2773 48.7074 57.2559V34.051C48.7217 28.2854 44.84 23.4618 39.5882 21.8919ZM30.3976 45.9388C30.3833 46.1386 30.3405 46.3384 30.2691 46.5382C30.212 46.738 30.1407 46.9235 30.0408 47.1091C29.998 47.1947 29.9837 47.2803 29.9409 47.366L23.8471 56.4995C23.262 57.3843 22.2915 57.8553 21.3068 57.8553C20.7217 57.8553 20.1366 57.684 19.6228 57.3415C18.2243 56.4139 17.8532 54.5158 18.7808 53.1172L21.7207 48.7217H18.2813C17.9246 48.7217 17.5821 48.6361 17.2253 48.5076C17.1254 48.4648 17.0255 48.422 16.9256 48.3649C16.8114 48.3078 16.6972 48.2793 16.5973 48.208C16.5117 48.1509 16.4689 48.0652 16.3976 47.9939C16.2263 47.8654 16.0979 47.7227 15.9551 47.5515C15.8267 47.3945 15.7268 47.2518 15.6412 47.0805C15.5556 46.9093 15.4842 46.738 15.4271 46.5525C15.37 46.3527 15.3272 46.1529 15.2987 45.9531C15.2844 45.8532 15.2416 45.7676 15.2416 45.6677C15.2416 45.5678 15.2844 45.4822 15.2987 45.3965C15.3129 45.1967 15.3558 44.9969 15.4271 44.7971C15.4842 44.5974 15.5556 44.4118 15.6555 44.2263C15.6983 44.1407 15.7125 44.055 15.7554 43.9694L21.8491 34.8359C22.7768 33.4373 24.6748 33.052 26.0734 33.9939C27.472 34.9215 27.843 36.8196 26.9154 38.2181L23.9755 42.6137H27.4149C27.5148 42.6137 27.5861 42.6565 27.686 42.6707C27.9001 42.685 28.0856 42.7278 28.2854 42.7992C28.4852 42.8563 28.6707 42.9276 28.842 43.0275C28.9276 43.0703 29.0133 43.0846 29.0989 43.1274C29.1845 43.1845 29.2273 43.2701 29.2987 43.3272C29.4699 43.4557 29.5984 43.5984 29.7411 43.7696C29.8695 43.9266 29.9694 44.0693 30.055 44.2406C30.1407 44.4118 30.212 44.5831 30.2691 44.7686C30.3262 44.9684 30.369 45.1682 30.3976 45.368C30.4118 45.4679 30.4546 45.5535 30.4546 45.6534C30.4546 45.7676 30.3976 45.8389 30.3976 45.9388ZM33.4944 21.3068H15.2273V18.2671H33.4944V21.3068Z" fill="#D74850"/>
</svg>
