<svg width="64" height="70" viewBox="0 0 64 70" fill="none" xmlns="http://www.w3.org/2000/svg">
<path d="M13.924 42.7097V29.3374C13.924 28.3724 14.0623 27.4314 14.3213 26.5331H5.30426C3.84201 26.5331 2.51595 27.128 1.55571 28.0883C0.595474 29.0485 0 30.3751 0 31.8368V42.4774C0 43.7725 0.472641 44.965 1.25557 45.8927C1.66252 46.3755 2.15492 46.7845 2.70927 47.0975V62.5633C2.70927 63.6939 3.62572 64.6103 4.75578 64.6103H17.3286V50.3131C15.179 48.3723 13.924 45.6075 13.924 42.7097Z" fill="#D74850"/>
<path d="M11.0535 24.1122C15.475 24.1122 19.0718 20.5153 19.0718 16.0938C19.0718 11.6724 15.475 8.0755 11.0535 8.0755C6.63203 8.0755 3.03516 11.6724 3.03516 16.0938C3.03516 20.5153 6.63203 24.1122 11.0535 24.1122Z" fill="#D74850"/>
<path d="M38.6151 23.1968H24.1576C22.4657 23.1968 20.9303 23.8862 19.8184 24.9976C18.7065 26.1095 18.0176 27.6449 18.0176 29.3374V42.7096C18.0176 44.2093 18.5645 45.5903 19.4697 46.6633C20.0064 47.2993 20.6708 47.8254 21.4222 48.2014V67.9529C21.4222 69.0835 22.3386 70 23.4692 70H39.304C40.4346 70 41.3511 69.0835 41.3511 67.9529V48.2014C42.1025 47.8254 42.7669 47.2993 43.3031 46.6633C44.2088 45.5903 44.7557 44.2098 44.7557 42.7096V29.3374C44.7557 27.6449 44.0668 26.1095 42.9549 24.9982C41.843 23.8862 40.3075 23.1968 38.6151 23.1968Z" fill="#D74850"/>
<path d="M31.3834 19.1032C36.6503 19.1032 40.935 14.8185 40.935 9.55162C40.935 4.28474 36.6503 0 31.3834 0C26.1165 0 21.8318 4.28474 21.8318 9.55162C21.8318 14.8185 26.1165 19.1032 31.3834 19.1032Z" fill="#D74850"/>
<path d="M61.4919 28.0883C60.5317 27.128 59.2056 26.5331 57.7434 26.5331H48.4519C48.7103 27.4314 48.8492 28.3724 48.8492 29.3374V42.7097C48.8492 45.6069 47.5942 48.3723 45.4446 50.3131V64.5954C45.5252 64.605 45.608 64.6103 45.6918 64.6103H58.2913C59.4219 64.6103 60.3384 63.6939 60.3384 62.5633V47.0975C60.8922 46.7851 61.3846 46.3755 61.7921 45.8927C62.575 44.965 63.0477 43.7725 63.0477 42.4774V31.8368C63.0477 30.3751 62.4522 29.0485 61.4919 28.0883Z" fill="#D74850"/>
<path d="M51.9888 24.1122C56.4103 24.1122 60.0071 20.5153 60.0071 16.0938C60.0071 11.6724 56.4103 8.0755 51.9888 8.0755C47.5679 8.0755 43.9705 11.6724 43.9705 16.0938C43.9705 20.5153 47.5679 24.1122 51.9888 24.1122Z" fill="#D74850"/>
</svg>
