<svg width="97" height="70" viewBox="0 0 97 70" fill="none" xmlns="http://www.w3.org/2000/svg">
<path d="M80.3495 64.3549H73.7635V26.3441H68.1184V64.3549C66.466 64.3549 29.8652 64.3549 28.2259 64.3549V26.3441H22.5807V64.3549H15.9947C14.4359 64.3549 13.1721 65.6186 13.1721 67.1774C13.1721 68.7363 14.4359 70 15.9947 70H80.3495C81.9084 70 83.1721 68.7363 83.1721 67.1774C83.1721 65.6186 81.9084 64.3549 80.3495 64.3549Z" fill="#D74850"/>
<path d="M59.7445 58.7097V47.6028C61.2595 47.5527 62.473 46.3121 62.473 44.7849C62.473 43.2261 61.2092 41.9623 59.6504 41.9623H36.6934C35.1346 41.9623 33.8708 43.2261 33.8708 44.7849C33.8708 46.3119 35.0844 47.5527 36.5993 47.6028V58.7097H59.7445Z" fill="#D74850"/>
<path d="M93.5215 0H82.2312C80.6724 0 79.4086 1.26376 79.4086 2.82258V15.0538H16.9355V2.82258C16.9355 1.26376 15.6717 0 14.1129 0H2.82258C1.26376 0 0 1.26376 0 2.82258V33.1183C0 34.6771 1.26376 35.9409 2.82258 35.9409H14.1129C15.6717 35.9409 16.9355 34.6771 16.9355 33.1183V20.6989C19.8725 20.6989 76.3386 20.6989 79.4086 20.6989V33.1183C79.4086 34.6771 80.6724 35.9409 82.2312 35.9409H93.5215C95.0803 35.9409 96.3441 34.6771 96.3441 33.1183V2.82258C96.3441 1.26376 95.0803 0 93.5215 0Z" fill="#D74850"/>
</svg>
