<svg width="20" height="20" viewBox="0 0 20 20" xmlns="http://www.w3.org/2000/svg">
<path d="M4.3515 6.27588H0.585938C0.262299 6.27588 0 6.53833 0 6.86182V19.414C0 19.7376 0.262299 19.9999 0.585938 19.9999H4.3515C4.67514 19.9999 4.93744 19.7376 4.93744 19.414V6.86182C4.93744 6.53833 4.67514 6.27588 4.3515 6.27588Z" fill="inherit"/>
<path d="M2.46887 0C1.10748 0 0 1.10748 0 2.46857C0 3.82996 1.10748 4.93729 2.46887 4.93729C3.83011 4.93729 4.93744 3.8298 4.93744 2.46857C4.93744 1.10748 3.83011 0 2.46887 0Z" fill="inherit"/>
<path d="M13.766 6.19287C12.8753 6.19287 11.9975 6.40756 11.2113 6.80917C11.1846 6.51025 10.9336 6.27573 10.6277 6.27573H6.86182C6.53833 6.27573 6.27588 6.53818 6.27588 6.86166V19.4138C6.27588 19.7375 6.53833 19.9998 6.86182 19.9998H10.6277C10.9513 19.9998 11.2136 19.7375 11.2136 19.4138V12.5102C11.2136 11.6221 11.9361 10.8996 12.8243 10.8996C13.7122 10.8996 14.4348 11.6221 14.4348 12.5102V19.4138C14.4348 19.7375 14.6972 19.9998 15.0207 19.9998H18.7864C19.11 19.9998 19.3723 19.7375 19.3723 19.4138V11.7993C19.3723 8.70782 16.8574 6.19287 13.766 6.19287Z" fill="inherit"/>
</svg>
