<svg width="111" height="54" viewBox="0 0 111 54" fill="none" xmlns="http://www.w3.org/2000/svg">
<path d="M10.8408 25.924V22.444H16.5828V32.681C13.8181 33.1257 11.5755 33.348 9.85479 33.348C6.78079 33.348 4.66379 32.5263 3.50379 30.883C2.36313 29.2397 1.79279 26.6297 1.79279 23.053C1.79279 19.4763 2.39213 16.8953 3.59079 15.31C4.78946 13.7247 6.82913 12.932 9.70979 12.932C11.5078 12.932 13.4508 13.135 15.5388 13.541L16.5828 13.744L16.4668 16.847C14.1468 16.5957 12.2425 16.47 10.7538 16.47C9.28446 16.47 8.25013 16.644 7.65079 16.992C7.05146 17.34 6.60679 17.9877 6.31679 18.935C6.04613 19.863 5.91079 21.4677 5.91079 23.749C5.91079 26.011 6.19113 27.5963 6.75179 28.505C7.31246 29.4137 8.47246 29.868 10.2318 29.868L12.6388 29.752V25.924H10.8408ZM27.8552 33H23.8532V25.025L17.7632 13.28H22.2002L25.8252 21.139L29.4502 13.28H33.8872L27.8552 25.025V33ZM36.0518 33V13.28H42.8668L46.3468 27.664L49.8268 13.28H56.6418V33H52.6398V17.746H52.2048L48.3478 32.13H44.3458L40.4888 17.746H40.0538V33H36.0518Z" fill="#D74850"/>
<path d="M73.6895 33V13.28H86.2755V16.76H77.6915V22.56H84.7095V26.04H77.6915V33H73.6895ZM89.0957 33V13.28H93.0977V33H89.0957ZM95.6246 16.818V13.28H110.125V16.818H104.905V33H100.903V16.818H95.6246Z" fill="#F6F4EA"/>
<path d="M19.9225 42.625V45.13H22.8675V45.92H19.9225V49H18.9525V41.835H23.3675V42.625H19.9225ZM26.2768 49H25.3068V41.835H26.2768V49ZM33.6545 42.65H31.3345V49H30.3695V42.65H28.0445V41.835H33.6545V42.65ZM41.2227 41.835V49H40.7377C40.6611 49 40.5961 48.9867 40.5427 48.96C40.4927 48.9333 40.4427 48.8883 40.3927 48.825L36.2477 43.425C36.2544 43.5083 36.2594 43.59 36.2627 43.67C36.2661 43.75 36.2677 43.825 36.2677 43.895V49H35.4177V41.835H35.9177C35.9611 41.835 35.9977 41.8383 36.0277 41.845C36.0577 41.8483 36.0844 41.8567 36.1077 41.87C36.1311 41.88 36.1544 41.8967 36.1777 41.92C36.2011 41.94 36.2261 41.9667 36.2527 42L40.3977 47.395C40.3911 47.3083 40.3844 47.225 40.3777 47.145C40.3744 47.0617 40.3727 46.9833 40.3727 46.91V41.835H41.2227ZM48.1745 48.21L48.1695 49H43.7545V41.835H48.1695V42.625H44.7245V45.005H47.5145V45.765H44.7245V48.21H48.1745ZM53.8909 42.955C53.8609 43.005 53.8276 43.0433 53.7909 43.07C53.7576 43.0933 53.7159 43.105 53.6659 43.105C53.6093 43.105 53.5426 43.0767 53.4659 43.02C53.3893 42.9633 53.2926 42.9017 53.1759 42.835C53.0626 42.765 52.9243 42.7017 52.7609 42.645C52.6009 42.5883 52.4059 42.56 52.1759 42.56C51.9593 42.56 51.7676 42.59 51.6009 42.65C51.4376 42.7067 51.2993 42.785 51.1859 42.885C51.0759 42.985 50.9926 43.1033 50.9359 43.24C50.8793 43.3733 50.8509 43.5183 50.8509 43.675C50.8509 43.875 50.8993 44.0417 50.9959 44.175C51.0959 44.305 51.2259 44.4167 51.3859 44.51C51.5493 44.6033 51.7326 44.685 51.9359 44.755C52.1426 44.8217 52.3526 44.8917 52.5659 44.965C52.7826 45.0383 52.9926 45.1217 53.1959 45.215C53.4026 45.305 53.5859 45.42 53.7459 45.56C53.9093 45.7 54.0393 45.8717 54.1359 46.075C54.2359 46.2783 54.2859 46.5283 54.2859 46.825C54.2859 47.1383 54.2326 47.4333 54.1259 47.71C54.0193 47.9833 53.8626 48.2217 53.6559 48.425C53.4526 48.6283 53.2009 48.7883 52.9009 48.905C52.6043 49.0217 52.2659 49.08 51.8859 49.08C51.4193 49.08 50.9959 48.9967 50.6159 48.83C50.2359 48.66 49.9109 48.4317 49.6409 48.145L49.9209 47.685C49.9476 47.6483 49.9793 47.6183 50.0159 47.595C50.0559 47.5683 50.0993 47.555 50.1459 47.555C50.1893 47.555 50.2376 47.5733 50.2909 47.61C50.3476 47.6433 50.4109 47.6867 50.4809 47.74C50.5509 47.7933 50.6309 47.8517 50.7209 47.915C50.8109 47.9783 50.9126 48.0367 51.0259 48.09C51.1426 48.1433 51.2743 48.1883 51.4209 48.225C51.5676 48.2583 51.7326 48.275 51.9159 48.275C52.1459 48.275 52.3509 48.2433 52.5309 48.18C52.7109 48.1167 52.8626 48.0283 52.9859 47.915C53.1126 47.7983 53.2093 47.66 53.2759 47.5C53.3426 47.34 53.3759 47.1617 53.3759 46.965C53.3759 46.7483 53.3259 46.5717 53.2259 46.435C53.1293 46.295 53.0009 46.1783 52.8409 46.085C52.6809 45.9917 52.4976 45.9133 52.2909 45.85C52.0843 45.7833 51.8743 45.7167 51.6609 45.65C51.4476 45.58 51.2376 45.5 51.0309 45.41C50.8243 45.32 50.6409 45.2033 50.4809 45.06C50.3209 44.9167 50.1909 44.7383 50.0909 44.525C49.9943 44.3083 49.9459 44.0417 49.9459 43.725C49.9459 43.4717 49.9943 43.2267 50.0909 42.99C50.1909 42.7533 50.3343 42.5433 50.5209 42.36C50.7109 42.1767 50.9426 42.03 51.2159 41.92C51.4926 41.81 51.8093 41.755 52.1659 41.755C52.5659 41.755 52.9293 41.8183 53.2559 41.945C53.5859 42.0717 53.8759 42.255 54.1259 42.495L53.8909 42.955ZM60.0206 42.955C59.9906 43.005 59.9573 43.0433 59.9206 43.07C59.8873 43.0933 59.8456 43.105 59.7956 43.105C59.739 43.105 59.6723 43.0767 59.5956 43.02C59.519 42.9633 59.4223 42.9017 59.3056 42.835C59.1923 42.765 59.054 42.7017 58.8906 42.645C58.7306 42.5883 58.5356 42.56 58.3056 42.56C58.089 42.56 57.8973 42.59 57.7306 42.65C57.5673 42.7067 57.429 42.785 57.3156 42.885C57.2056 42.985 57.1223 43.1033 57.0656 43.24C57.009 43.3733 56.9806 43.5183 56.9806 43.675C56.9806 43.875 57.029 44.0417 57.1256 44.175C57.2256 44.305 57.3556 44.4167 57.5156 44.51C57.679 44.6033 57.8623 44.685 58.0656 44.755C58.2723 44.8217 58.4823 44.8917 58.6956 44.965C58.9123 45.0383 59.1223 45.1217 59.3256 45.215C59.5323 45.305 59.7156 45.42 59.8756 45.56C60.039 45.7 60.169 45.8717 60.2656 46.075C60.3656 46.2783 60.4156 46.5283 60.4156 46.825C60.4156 47.1383 60.3623 47.4333 60.2556 47.71C60.149 47.9833 59.9923 48.2217 59.7856 48.425C59.5823 48.6283 59.3306 48.7883 59.0306 48.905C58.734 49.0217 58.3956 49.08 58.0156 49.08C57.549 49.08 57.1256 48.9967 56.7456 48.83C56.3656 48.66 56.0406 48.4317 55.7706 48.145L56.0506 47.685C56.0773 47.6483 56.109 47.6183 56.1456 47.595C56.1856 47.5683 56.229 47.555 56.2756 47.555C56.319 47.555 56.3673 47.5733 56.4206 47.61C56.4773 47.6433 56.5406 47.6867 56.6106 47.74C56.6806 47.7933 56.7606 47.8517 56.8506 47.915C56.9406 47.9783 57.0423 48.0367 57.1556 48.09C57.2723 48.1433 57.404 48.1883 57.5506 48.225C57.6973 48.2583 57.8623 48.275 58.0456 48.275C58.2756 48.275 58.4806 48.2433 58.6606 48.18C58.8406 48.1167 58.9923 48.0283 59.1156 47.915C59.2423 47.7983 59.339 47.66 59.4056 47.5C59.4723 47.34 59.5056 47.1617 59.5056 46.965C59.5056 46.7483 59.4556 46.5717 59.3556 46.435C59.259 46.295 59.1306 46.1783 58.9706 46.085C58.8106 45.9917 58.6273 45.9133 58.4206 45.85C58.214 45.7833 58.004 45.7167 57.7906 45.65C57.5773 45.58 57.3673 45.5 57.1606 45.41C56.954 45.32 56.7706 45.2033 56.6106 45.06C56.4506 44.9167 56.3206 44.7383 56.2206 44.525C56.124 44.3083 56.0756 44.0417 56.0756 43.725C56.0756 43.4717 56.124 43.2267 56.2206 42.99C56.3206 42.7533 56.464 42.5433 56.6506 42.36C56.8406 42.1767 57.0723 42.03 57.3456 41.92C57.6223 41.81 57.939 41.755 58.2956 41.755C58.6956 41.755 59.059 41.8183 59.3856 41.945C59.7156 42.0717 60.0056 42.255 60.2556 42.495L60.0206 42.955ZM70.7739 47.52C70.8272 47.52 70.8739 47.5417 70.9139 47.585L71.2989 48C71.0056 48.34 70.6489 48.605 70.2289 48.795C69.8122 48.985 69.3072 49.08 68.7139 49.08C68.2006 49.08 67.7339 48.9917 67.3139 48.815C66.8939 48.635 66.5356 48.385 66.2389 48.065C65.9422 47.7417 65.7122 47.355 65.5489 46.905C65.3856 46.455 65.3039 45.96 65.3039 45.42C65.3039 44.88 65.3889 44.385 65.5589 43.935C65.7289 43.485 65.9672 43.0983 66.2739 42.775C66.5839 42.4517 66.9539 42.2017 67.3839 42.025C67.8139 41.845 68.2889 41.755 68.8089 41.755C69.3189 41.755 69.7689 41.8367 70.1589 42C70.5489 42.1633 70.8922 42.385 71.1889 42.665L70.8689 43.11C70.8489 43.1433 70.8222 43.1717 70.7889 43.195C70.7589 43.215 70.7172 43.225 70.6639 43.225C70.6039 43.225 70.5306 43.1933 70.4439 43.13C70.3572 43.0633 70.2439 42.99 70.1039 42.91C69.9639 42.83 69.7889 42.7583 69.5789 42.695C69.3689 42.6283 69.1106 42.595 68.8039 42.595C68.4339 42.595 68.0956 42.66 67.7889 42.79C67.4822 42.9167 67.2172 43.1017 66.9939 43.345C66.7739 43.5883 66.6022 43.885 66.4789 44.235C66.3556 44.585 66.2939 44.98 66.2939 45.42C66.2939 45.8667 66.3572 46.265 66.4839 46.615C66.6139 46.965 66.7889 47.2617 67.0089 47.505C67.2322 47.745 67.4939 47.9283 67.7939 48.055C68.0972 48.1817 68.4239 48.245 68.7739 48.245C68.9872 48.245 69.1789 48.2333 69.3489 48.21C69.5222 48.1833 69.6806 48.1433 69.8239 48.09C69.9706 48.0367 70.1056 47.97 70.2289 47.89C70.3556 47.8067 70.4806 47.7083 70.6039 47.595C70.6606 47.545 70.7172 47.52 70.7739 47.52ZM77.1886 48.185V49H73.1236V41.835H74.0886V48.185H77.1886ZM81.4616 48.23C81.7583 48.23 82.0233 48.18 82.2566 48.08C82.49 47.98 82.6866 47.84 82.8466 47.66C83.01 47.48 83.1333 47.265 83.2166 47.015C83.3033 46.765 83.3466 46.49 83.3466 46.19V41.835H84.3116V46.19C84.3116 46.6033 84.245 46.9867 84.1116 47.34C83.9816 47.6933 83.7933 48 83.5466 48.26C83.3033 48.5167 83.005 48.7183 82.6516 48.865C82.2983 49.0117 81.9016 49.085 81.4616 49.085C81.0216 49.085 80.625 49.0117 80.2716 48.865C79.9183 48.7183 79.6183 48.5167 79.3716 48.26C79.125 48 78.935 47.6933 78.8016 47.34C78.6716 46.9867 78.6066 46.6033 78.6066 46.19V41.835H79.5716V46.185C79.5716 46.485 79.6133 46.76 79.6966 47.01C79.7833 47.26 79.9066 47.475 80.0666 47.655C80.23 47.835 80.4283 47.9767 80.6616 48.08C80.8983 48.18 81.165 48.23 81.4616 48.23ZM89.2652 48.23C89.5418 48.23 89.7802 48.1983 89.9802 48.135C90.1802 48.0717 90.3435 47.9833 90.4702 47.87C90.6002 47.7533 90.6952 47.6167 90.7552 47.46C90.8152 47.3 90.8452 47.125 90.8452 46.935C90.8452 46.565 90.7135 46.2733 90.4502 46.06C90.1868 45.8433 89.7918 45.735 89.2652 45.735H87.7152V48.23H89.2652ZM87.7152 42.6V45.045H88.9952C89.2685 45.045 89.5052 45.015 89.7052 44.955C89.9085 44.895 90.0752 44.8117 90.2052 44.705C90.3385 44.5983 90.4368 44.47 90.5002 44.32C90.5635 44.1667 90.5952 44 90.5952 43.82C90.5952 43.3967 90.4685 43.0883 90.2152 42.895C89.9618 42.6983 89.5685 42.6 89.0352 42.6H87.7152ZM89.0352 41.835C89.4752 41.835 89.8535 41.8783 90.1702 41.965C90.4902 42.0517 90.7518 42.175 90.9552 42.335C91.1618 42.495 91.3135 42.6917 91.4102 42.925C91.5068 43.155 91.5552 43.415 91.5552 43.705C91.5552 43.8817 91.5268 44.0517 91.4702 44.215C91.4168 44.375 91.3352 44.525 91.2252 44.665C91.1152 44.805 90.9752 44.9317 90.8052 45.045C90.6385 45.155 90.4418 45.245 90.2152 45.315C90.7418 45.415 91.1368 45.6033 91.4002 45.88C91.6668 46.1533 91.8002 46.5133 91.8002 46.96C91.8002 47.2633 91.7435 47.54 91.6302 47.79C91.5202 48.04 91.3568 48.255 91.1402 48.435C90.9268 48.615 90.6635 48.755 90.3502 48.855C90.0368 48.9517 89.6802 49 89.2802 49H86.7502V41.835H89.0352Z" fill="#F6F4EA"/>
<rect x="19" y="51" width="41" height="3" fill="#D74850"/>
</svg>
