<svg width="24" height="19" viewBox="0 0 24 19" fill="none" xmlns="http://www.w3.org/2000/svg">
<path d="M0.500896 1.96044C3.7948 4.75002 9.57458 9.65773 11.2733 11.188C11.5014 11.3945 11.746 11.4995 11.9999 11.4995C12.2533 11.4995 12.4975 11.3955 12.725 11.1899C14.4252 9.6582 20.205 4.75002 23.4989 1.96044C23.704 1.78709 23.7353 1.48241 23.5693 1.27048C23.1854 0.780781 22.6132 0.5 21.9999 0.5H1.99991C1.38665 0.5 0.814349 0.780781 0.430583 1.27053C0.264552 1.48241 0.295818 1.78709 0.500896 1.96044Z" fill="#D74850"/>
<path d="M23.71 3.47215C23.5327 3.38965 23.3242 3.41843 23.1768 3.54443C19.5239 6.64109 14.8618 10.6104 13.395 11.9321C12.5717 12.6753 11.4292 12.6753 10.604 11.9311C9.0405 10.5224 3.80512 6.07175 0.823219 3.54439C0.674766 3.41839 0.465797 3.39059 0.290016 3.4721C0.113297 3.55418 0 3.73095 0 3.92576V16.5C0 17.603 0.896953 18.5 2.00002 18.5H22C23.103 18.5 24 17.603 24 16.5V3.92576C24 3.73095 23.8867 3.55371 23.71 3.47215Z" fill="#D74850"/>
</svg>
