<svg width="50" height="42" viewBox="0 0 50 42" fill="none" xmlns="http://www.w3.org/2000/svg">
<path d="M16.003 18.9239C14.7715 18.5693 13.54 18.3894 12.3421 18.3894C10.4923 18.3894 8.94873 18.8122 7.75187 19.3298C8.90572 15.1056 11.6776 7.81689 17.1993 6.99608C17.7106 6.92003 18.1297 6.55027 18.2692 6.05253L19.476 1.73604C19.5778 1.371 19.5175 0.980259 19.3093 0.663471C19.101 0.346683 18.7664 0.135316 18.3914 0.0839172C17.9839 0.028322 17.5685 0 17.1568 0C10.529 0 3.96515 6.91793 1.19538 16.8233C-0.430499 22.6346 -0.907249 31.3714 3.09766 36.8706C5.33875 39.9478 8.60834 41.591 12.8157 41.7551C12.833 41.7557 12.8498 41.7562 12.8671 41.7562C18.0584 41.7562 22.6617 38.26 24.0621 33.2548C24.8986 30.2627 24.5205 27.1247 22.9963 24.4168C21.4885 21.7393 19.0051 19.7877 16.003 18.9239Z" fill="#D74850"/>
<path d="M48.499 24.4173C46.9912 21.7393 44.5078 19.7877 41.5057 18.9239C40.2742 18.5693 39.0427 18.3894 37.8453 18.3894C35.9955 18.3894 34.4514 18.8122 33.2546 19.3298C34.4084 15.1056 37.1803 7.81689 42.7025 6.99608C43.2139 6.92003 43.6324 6.55027 43.7724 6.05253L44.9793 1.73604C45.081 1.371 45.0207 0.980259 44.8125 0.663471C44.6048 0.346683 44.2702 0.135316 43.8946 0.0839172C43.4876 0.028322 43.0723 0 42.66 0C36.0322 0 29.4684 6.91793 26.6981 16.8233C25.0727 22.6346 24.596 31.3714 28.6014 36.8717C30.842 39.9483 34.1121 41.592 38.3189 41.7557C38.3362 41.7562 38.353 41.7567 38.3709 41.7567C43.5616 41.7567 48.1655 38.2605 49.5658 33.2554C50.4013 30.2632 50.0226 27.1247 48.499 24.4173Z" fill="#D74850"/>
</svg>
