<svg width="46" height="70" viewBox="0 0 46 70" fill="none" xmlns="http://www.w3.org/2000/svg">
<path d="M36.6947 7.13429C34.6218 2.55817 31.0242 0.159794 25.9951 0C27.2309 3.48102 28.6969 10.078 27.4457 15.3981L27.3966 15.7419H25.7657L25.7495 15.3593C26.4979 11.544 25.2211 3.34908 23.7968 0.358437C22.4694 0.751325 17.051 2.8499 15.5938 11.2112L15.5264 11.5975L13.4454 11.2772L13.5048 10.8836C13.8324 4.90303 20.6999 0.035917 20.6999 0.035917C16.1949 0.689753 10.5596 6.8081 10.1982 10.8784L10.1476 11.4517L9.62795 11.2039C9.61109 11.1958 7.96111 10.4225 5.83321 10.4225C4.07181 10.4225 2.49147 10.9408 1.14128 11.9618C1.14495 11.9618 0 13.0591 0 14.6431C0 16.395 0.606925 17.1683 1.26296 17.7415C1.49679 17.946 3.02802 18.4826 5.09655 18.4826C7.41503 18.4826 10.6483 17.8273 12.8744 14.7106C12.8861 14.6915 13.4007 13.9182 14.2415 13.9182C14.6717 13.9182 15.0895 14.1176 15.4824 14.5105C15.6429 14.6717 15.8269 14.885 16.0402 15.132C17.3325 16.6391 19.7389 19.4428 25.3501 19.4428C31.5923 19.4428 36.4381 17.5187 38.3476 14.2898C38.3293 13.6646 38.1614 10.3741 36.6947 7.13429Z" fill="#D74850"/>
<path d="M32.9727 41.2869H14.3677L23.9106 57.9289L32.9727 41.2869Z" fill="#D74850"/>
<path d="M38.7677 15.9068C36.5606 19.1327 31.6143 21.0422 25.3501 21.0422C19.371 21.0422 16.8092 18.056 15.4326 16.4529C15.2354 16.2227 15.0661 16.0248 14.9166 15.8745C14.6791 15.6371 14.4526 15.5168 14.2415 15.5168C13.8369 15.5168 13.5356 15.9581 13.5327 15.9625C11.7412 18.4694 9.33332 19.4824 7.34469 19.8657C7.1805 20.8018 7.07715 21.7591 7.07715 22.7413C7.07715 31.9023 14.5039 39.3298 23.6657 39.3298C32.8274 39.3298 40.2549 31.9023 40.2549 22.7413C40.2549 20.3011 39.7154 17.9915 38.7677 15.9068Z" fill="#D74850"/>
<path d="M41.6658 41.2869H34.8709C34.9251 41.5193 34.9046 41.7729 34.7807 41.9987L25.3749 59.2755C26.168 59.7754 26.7024 60.6674 26.7024 61.6944V68.5545H25.317C25.317 68.5545 25.4233 65.7794 23.9316 64.5399C22.4026 64.5399 21.1623 63.2652 21.1623 61.6936C21.1623 60.6777 21.685 59.7915 22.4649 59.2894L12.5613 42.017C12.4294 41.7876 12.4008 41.5266 12.4572 41.2869H5.66526C3.45673 41.2869 1.66528 43.244 1.66528 45.6593V65.6269C1.66528 68.0429 3.45673 70 5.66526 70H9.39916V59.2432C9.39916 58.8005 9.75687 58.4435 10.1989 58.4435C10.6416 58.4435 10.9986 58.8005 10.9986 59.2432V70H36.3999V59.2432C36.3999 58.8005 36.7576 58.4435 37.1996 58.4435C37.6424 58.4435 38.0001 58.8005 38.0001 59.2432V70H41.6658C43.8758 70 45.6658 68.0429 45.6658 65.6269V45.6593C45.6658 43.244 43.8751 41.2869 41.6658 41.2869Z" fill="#D74850"/>
</svg>
