<svg width="25" height="20" viewBox="0 0 25 20" xmlns="http://www.w3.org/2000/svg">
<path d="M24.5249 2.38225C24.4897 2.34075 24.4316 2.32667 24.3821 2.3493C23.648 2.67497 22.8757 2.90909 22.0803 3.0474C22.9248 2.41217 23.554 1.5325 23.8766 0.523827C23.8922 0.475544 23.8761 0.422733 23.8366 0.391299C23.7969 0.359864 23.7418 0.35584 23.6983 0.381743C22.7472 0.945807 21.7172 1.34339 20.6353 1.56394C19.6767 0.569093 18.3381 0 16.9527 0C14.1351 0 11.8432 2.29197 11.8432 5.10927C11.8432 5.45002 11.8761 5.7875 11.9415 6.11518C8.03906 5.87426 4.39012 4.00075 1.90904 0.957626C1.88364 0.926443 1.84517 0.909091 1.80493 0.913114C1.76495 0.916132 1.72924 0.938765 1.70912 0.973218C1.25646 1.74978 1.01731 2.63825 1.01731 3.54206C1.01731 5.10851 1.72899 6.57312 2.94086 7.53954C2.31694 7.4646 1.70761 7.2682 1.15813 6.96316C1.12117 6.94229 1.07514 6.94254 1.03818 6.96391C1.00121 6.98504 0.977823 7.02427 0.976817 7.06702L0.976314 7.1324C0.976314 9.38212 2.45877 11.3575 4.56791 12.0133C4.0124 12.1029 3.43601 12.0968 2.86944 11.9887C2.82769 11.9809 2.78393 11.9952 2.75527 12.0274C2.72685 12.0596 2.71729 12.1046 2.73037 12.1454C3.36284 14.1195 5.12016 15.5038 7.16568 15.6763C5.4594 16.9264 3.44255 17.5851 1.31153 17.5851C0.918977 17.5851 0.523655 17.5617 0.13638 17.5162C0.0810547 17.5099 0.0262326 17.5428 0.00712028 17.5959C-0.011992 17.6494 0.00837767 17.7093 0.0561584 17.7397C2.36221 19.2187 5.02862 20 7.76746 20C16.7263 20 22.0798 12.7227 22.0798 5.68741C22.0798 5.49151 22.076 5.29662 22.0682 5.10222C23.0347 4.39532 23.8643 3.52999 24.5332 2.52835C24.5631 2.48359 24.5599 2.42399 24.5249 2.38225Z" fill="inherit"/>
</svg>
