<svg width="60" height="70" viewBox="0 0 60 70" fill="none" xmlns="http://www.w3.org/2000/svg">
<path d="M30.1425 22.2097C30.1548 22.2097 30.1672 22.2089 30.1796 22.2089C30.1922 22.2089 30.2045 22.2097 30.2169 22.2097C36.3501 22.2097 41.3215 17.238 41.3215 11.1047C41.3215 4.97199 36.3501 0 30.2169 0C30.2045 0 30.1922 0.000866603 30.1796 0.000866603C30.1672 0.000866603 30.1549 0 30.1425 0C24.0091 0 19.0378 4.97199 19.0378 11.1047C19.0376 17.238 24.0088 22.2097 30.1425 22.2097Z" fill="#D74850"/>
<path d="M58.0336 44.9244L45.5109 35.819L41.551 26.1488C40.7973 24.3087 39.0024 23.2116 37.1258 23.2529L37.1252 23.2485H29.9788H22.8326L22.8321 23.2529C20.9553 23.2116 19.1607 24.3087 18.4069 26.1488L14.4468 35.819L1.9241 44.9244C-0.161957 46.4413 -0.623711 49.362 0.893422 51.4484C1.80725 52.7047 3.23108 53.3722 4.67455 53.3722C5.62695 53.3722 6.58801 53.0816 7.41706 52.4783L20.9569 42.6346L20.6118 46.1985L7.80964 59.1743C6.03353 61.0223 5.53264 63.7525 6.53732 66.111C7.54185 68.4692 9.85742 70 12.4208 70H18.5402C16.9633 68.5727 15.9577 66.4431 15.9577 64.0648C15.9577 59.7769 19.2177 56.2886 23.2249 56.2886C23.2249 56.2886 27.9122 56.2886 30.195 56.2886C32.4781 56.2886 34.2897 58.155 34.2897 58.155H23.2249C20.1795 58.155 17.7018 60.806 17.7018 64.0648C17.7018 67.3235 20.1795 69.9745 23.2249 69.9745H33.9408C34.0609 69.9658 34.1834 69.9654 34.3018 69.9512H47.2551C49.8185 69.9512 52.1339 68.4202 53.1386 66.0618C54.1431 63.7037 53.6424 60.9736 51.8664 59.1253L39.3432 46.1334H39.3397L39.001 42.6346L52.5406 52.4783C53.3694 53.0818 54.3309 53.3722 55.2829 53.3722C56.7265 53.3722 58.1503 52.7047 59.0641 51.4484C60.5814 49.362 60.1198 46.4413 58.0336 44.9244Z" fill="#D74850"/>
</svg>
